/* XPM */
static char *icon[] = {
/* columns rows colors chars-per-pixel */
"73 73 17 1 ",
"  c #6A1009",
". c #6F110A",
"X c #73120B",
"o c #74120B",
"O c #76130B",
"+ c #78130B",
"@ c #7A140C",
"# c #7C140C",
"$ c #843218",
"% c #954A1E",
"& c #B0700C",
"* c #BB7C48",
"= c #C68D06",
"- c #DBAC02",
"; c #E6B901",
": c #F3C701",
"> c #E8B34E",
/* pixels */
"X++ X.XX++.+++@X. ++XXXX+X@#@XX+ X . X++++ OX@@@@X+XX $%%+@.X++ X.Xoo+.++",
"oo+.X++XXX+++  X+++++.X  +@@X +.. X+X. X.@%%%%%%%$$%%&-============--;+o+",
"+++.X.X++ +.+%+%%%%%%%&-&% -==+XX$:-=-;-::;-=;-;-==-;;;=--====--&=====@.+",
"@;====-;;;:>==;--;;;;----;$$-;&. +$-&==&&&&&===--;:;-:;--;%@@@ XXo .&=@.+",
"@=-&&&&&&==&&&&&&&&&&%$$$$ .$$+X +.X@@#+@@%%-;:--;:;-----:%.@.OX@.@.X#@@+",
".=&+ +#@@@X@++@ +.+X+@X@X..   X+X++@@X@%-:-;:::---;:;----:=+.O O o##@@.@@",
" ==X+..X+++@+...@@ X.+ .X+.X.X.X  +X+X&:::--;::;--;;:;;;;--X XXO@..oX++@@",
"X-&+X++@X@@.+X+++@@+++. X++X++XXX+.++$-;--=-;;:-----;::::;-$+.XOo++@o%@.+",
"X-=..+XXXX@.X+X+@#X@++ X++@ X..X X XO&::--;-:-;-;;;;::::::-%XX...++X%:@.o",
".-;. + .+ @++XX+@@@@.XXX.+X +++..XX+%-;:----;-=--:::;::;;:-=.X . + .=;++@",
"X--+X   X++ +X+.+++ +    .+++XX .X $-:-:::---=---;::-;:--;--XXX+o   &;+ o",
"X--XX XXX .X@@+.X+X.+ X ++@.@+X O+X&:;--::-------;::::::-=--&X.Xo XX&-.X#",
"+-;.X X+X  ..XX. +++ X XX..#X@ +O$%=:;----::::;--;::::::;---=+X.X o+&> .X",
"@-:$.XX+XX@@++.X+.X@@ X..@##X$$&=;---;;---:::::--;-;:;-;=--:-$+ .Xoo&=%@o",
"X-:$.. + +X.++ X+@@X@+.+@@$&-:;-----;:::--::-:::-=;------=-:-$X+.. o&-%.@",
"@=-$ + X X+X++XXX @+@+$%%&-:::::---=-:;;:::::-;:-=;----:----=&++ + X&;%X@",
"+=-$+.+@@X@ XX+@@ @$%&=-;-:-:::----=---:-::-&$%===:;---::---;-$++.@@&:% X",
"+=-$. @@@X  . #@+%&--::;-::;---:-:----;-=&% ###-;--;:;--:-==--$.. @@&;% .",
"+=-$X+X@@@ XX @%--:::;-;::::--::-::--=%$X. +###&;:-----::;===-&XX+X@&:&XX",
"+=:%X++@.+  +.$-:------;:::------:;--&$+X+ @##@%-:;---::::===;-$++o#&;= X",
"@=:&X@+++ ++@@-:---=-==-------;-----;:;=%..X@@#X=;::--:::;;=-:-$o@o@&;&+@",
"+=:&@#X +.@X.%-;--====-;;-;;--;----;::;:;=%$@+.@&::::-::-::;;;-&#@o %:-X.",
"X=:&@+@+@ X+%-;;;;-=-;-;;-::;----==;:;-;::-=%XX %;:::;::;:;;:::=$X@+$-=@@",
" =:&@@@X@#@.=;:::;-;---=--:::------;:;;::;;;-&. X=::::::::-;:::-$@@X$-=.o",
"+&:&.@X@###&--:::-;:------::;----;;;:;-::-:;:-=%$&;::;::::;::::;%@X@$-= X",
"X%:&++@@##&-:::::--;--;::-:;-:-;--;-;--;:-:::::-%%-:;-:::::;;::;&+@@$-=@ ",
"X%;&X @..%;;-:::::----;:::::;-=-;;;;:-;:;--::::---;:-;::-:;--;::-$@.$-=@+",
"+%-& ++@#=:;----::-----:::-&&X%$&%&-;:::-----;:--;:--::::---:::::%+$%-= o",
"+%:=..X+&:::-:--:::-;-=-&%$@.+%X . X$%=::-::------;=-:::::--:::::=+$%;=+o",
".%:&.. %-:::;-::::-=&%$.+@@@@ XXX.  XX$&=-::::---------::----;:::-$.+-= @",
"X+-&X.$-;:::::::-&$$XXXX+X@@@XX+ X . X+X$&;::--;:------::::-=;-;::%X+-;o+",
"X+%-X$=;;:::;-&$$++++.X  +@@X +.. X++. X.+&;:-;:;-------:::==;-;::%X+=-++",
"+++-X=:--;-&%++ X  +@#@++X +@ooX+X + @+.+X@&-;::-;:;-----:-=;:--;:=X+=oXo",
"@+ -$:;=%$@.+X@+XXX++#@XX+.+ @#. +.+ @+@@@ X&-:;-;:;-;;;---;::-----$@&@.@",
"@.%-&:&..@+@+.X@XX .X@+@ . .+ @X X.X@@@+@@+X@=;;:----;::---::::--;:%X@+@+",
".+:-$-&$#@.@@++ +.X++@X+X..   +oX++@@+#@#@@+.$;:;-::;-:-----;;;;;::=$@X+@",
" X:=+--$+++@@...@@ +.+ .X+.X.X.o  +X@.@@@@@@X@=:-;:;:;:;-------;:;:=$@+@@",
"X.--+=;&X@@X+X++X@@@++. XX@$$%$$X+.++XX++@X +O$-;:;-;;::-----:;-;;;%X#@.+",
"X+;-.%-&$X@.XX++##.@X+ X+$%&=;-= X ++X+.@@OX.+#&::---::;-----;;-;:=XX%&.o",
".X;- $--$ @++X+X#@@#.+$%&=;--:::=&XXXX+X@.O+.+#%:;---;;---:------;%.+&;++",
"XX=-X =;&++ +X+.@+@$%=--;::;-::-;:&X.  X++X@XXO$;:--------::-:;--=$ X&; +",
"XX=&X &=&$.X@@+.++=--::;;:;---::-;:& XX+X+@@++O.&:::;;----:::::--%XXX&;%@",
"++=-$ $-=  ..XX. %;--;;---:---::::::% XX.+X+ . .&;--:&%-::-:::::=$X+X&;%.",
"@@=-$X$;;$@@++.XX=;:;-;:;::;---:::;:-$X+O ++.X++&-;-;&$-::---::;%XX++&%@+",
"X+=-$. =:&X.++ X%;;:;;::-==&-:-::-;::&$+@@@+X +O&-;;-$X&----;::=.. X +=%@",
"@+=-$+ $;;$X++XX=;::;;-&%$%#$$&::---;-$XXOX X.++$-;:&@X&---:::;% + X X&%+",
"++=-$X@$-;$ XX+%;-=&&%$X@@X@o#+&;:----$X+ X ..@@$-::&@@$-:::-:=+@.@@@X+ X",
"+ =;$ @@=:& . #==&$$o#@@++.@o@ .%-;-;-$X+ . @@@+%-:-$@+$&:::;-%.. @#@X  .",
"++=;$+X@%;=$X $&$#@.# .@@.@+.+OOo&;;;-$ XX O####&-;&@  @&-::;%XXX+X@#@%$X",
"X+=-$o+@$--&X.@%%X@.@ X@.o++O  O+%-:-=$OoO o###@&-=$@X+@$-;;-$.XX+X@.$;=X",
"++&-$@++$=:&@@#%%@#@@@#.+#.+oooX $=:;& .X.XX##@X&-$..X.@$=--%$.X++++@$-=+",
"X+%-%@X +&:=.#.$&$X.o+.+ X@@ X.o @%--&$++.+o@@.+=&+++++$$=;=+@@#@@X +$-=.",
"XX%-&X@@+$--@@oX&%. X X.+++ +oX @@$-=$++O##++XX%-$ +$$%&=&&$XXX@#+@++$==@",
" +%:&#@X@$=:%o  %%XX .++@oO@XOX+XX%-&o@###XoX..&&.$&==&&$@   +.X#@@X+$-=+",
"+@%:&@X@##&:&X...%+.X X o+@#XXo@@+%;%+##X+OoX %&%%%%&%+ @.@ +@+X.@+@@$-=X",
"XX%;&@@###&:=.X.X%$XXX.+o@##XXo@+X&&Xo##+.+.. %&XX+ +X +....XX.X++@#@$-= ",
"XX%-& @..#$-;%.o %% X ..X+..#@X+X %$+@@X#@OoO%&  X XO.X.@+@ oo+XX +..@-=+",
"+ %:&++@#@+=:%.@+.%    XX+@##X+o .$+ .@@.o+.%-$.o  .XX .@@X@@  . ++@@@-=X",
"+X%:=.++.+.&:-X@@+%$ .. ++.@.+oX %$Xo+o XOO+=&.@X o .oOO@@@@+X....++X+--+",
". %:&. .o@.$-:%@ .%&X ..+@+@@ X$%$  ooo@oO+%&#X  +OX. O#@@@ . X... .++--+",
"X+%:&.XX++.$=:%X. $&+oXo+X@@$$$-&X . X++O%=&o#@@+XOoX O@@+@.X+X X.XX++--+",
"X+X;&@o++oo+&:=o+@+%$.o  $$%-==&. X++. X.=& +.++ O..O. X+X. X++.X++XXX--+",
"+++:-.XX+ +.%:-%o  %$@$$%----&$X+X +$$%&=&++OX . .@#@@  X+@+++X.X.XX+ --+",
"@+ :-X .@.@.+-:&XXX+%&---=&%$@@.$X$&=-=&$+ XX+oX O@XX@X+X++@@@ +X+ .@.;-+",
"@.+;=.+.X@+@+=:=XX .&-=&$$ .o$%%&&&&&%$+@@@X@+.  ..@@#+ XX+.+.+X+.@..#=-+",
".+ :=+@@@@.@@%;-$.++$$X@X.$$%=;=&&$$@X##@#@+.+.X +++@@ X X++.+ + X@@##&=@",
" XX:-.XXX+@@@.=-%@ X.@ $%&&&-&%$  +X@.@@#@@+X+@@.+ +++X X.XX XXX+..XX@=$@",
"X.X:-$+@+#@.+X=:&@@@$%&&=&&&$+ooX+.++XXX+@X ++.@@@+ XX +..+.X.X++++@X#$.+",
"X+.:-+XXXX@.X+%:&$%&=&%&$@@ X..X X X++oX@+o+%$$$$$$$$$$&&&&&&&&&&&===-@.X",
".X :-+ .X @++X$=-&==&$X$&&&&&&&&=====-==*&------=--&---;;;--;-=-;;:::-@@+",
"XXX;----=&=;;;;--==;-&$&-;----;;;::;;;;;========%%%%%%%%%%%%XX++X   XX+ +",
"XX.;:;--===--:;===&%&&%%%%%%%%% ++X. XoOX+@@@o+.@+.+.X+X@@++XX.XX XX+ .X@",
"+XX.X ++X  ..XX..o@o X Xo..#o@ @o@XX  oo.@oo . ..XX  X+.X@.++XX.X X+X  .."
};
